<?xml version="1.0" encoding="UTF-8"?>
<!DOCTYPE svg PUBLIC "-//W3C//DTD SVG 1.1//EN" "http://www.w3.org/Graphics/SVG/1.1/DTD/svg11.dtd">
<!-- Creator: CorelDRAW 2019 (64-Bit) -->
<svg xmlns="http://www.w3.org/2000/svg" xml:space="preserve" width="60mm" height="120mm" version="1.1" style="shape-rendering:geometricPrecision; text-rendering:geometricPrecision; image-rendering:optimizeQuality; fill-rule:evenodd; clip-rule:evenodd"
viewBox="0 0 6000 12000"
 xmlns:xlink="http://www.w3.org/1999/xlink"
 xmlns:xodm="http://www.corel.com/coreldraw/odm/2003">
 <defs>
  <style type="text/css">
   <![CDATA[
    .fil0 {fill:black}
   ]]>
  </style>
 </defs>
 <g id="Capa_x0020_1">
  <metadata id="CorelCorpID_0Corel-Layer"/>
  <g id="_1283173920">
   <path class="fil0" d="M2670.08 1677.97c-382.75,-96.71 -699.23,-210.17 -1077.23,54.75 -359.03,251.63 -400.44,397.98 -541.65,810.42 -371.33,41.78 -417.18,-6.5 -506.2,398.96 -174.4,78.58 -251.82,84.58 -316.99,268.05l5594.25 0.06c-8.93,-308.63 -239.21,-312.97 -462.03,-175.1 -239.73,-269.01 -100.07,-480.95 -741.85,-487.27 -114.48,-268.7 -38.7,-379.54 -314.96,-613.11 -254.32,-215.02 -464.47,-129.45 -741.51,-109.58 -94.79,-179.3 -63.15,-401.75 -355.04,-462.1 -358.02,-74.03 -376.76,161.54 -536.79,314.92z"/>
   <path class="fil0" d="M2592.03 7803.33l814.54 7.39c76.32,-262.51 84,-1757.85 91.42,-2135.18 13.46,-685.14 98.16,-1491.9 66.48,-2157.45l-1102.39 -6.9 129.95 4292.14z"/>
   <path class="fil0" d="M1325.22 7808.67l706 0.82c20.48,-135.62 -630.36,-3939.22 -722.23,-4298.33l-1095.99 10.64 1112.22 4286.87z"/>
   <polygon class="fil0" points="5772.92,3511.81 4736.35,3527.29 3973.2,7809.73 4736.37,7800.43 "/>
  </g>
 </g>
</svg>
