<?xml version="1.0" encoding="UTF-8"?>
<!DOCTYPE svg PUBLIC "-//W3C//DTD SVG 1.1//EN" "http://www.w3.org/Graphics/SVG/1.1/DTD/svg11.dtd">
<!-- Creator: CorelDRAW 2019 (64-Bit) -->
<svg xmlns="http://www.w3.org/2000/svg" xml:space="preserve" width="217.291mm" height="281.2mm" version="1.1" style="shape-rendering:geometricPrecision; text-rendering:geometricPrecision; image-rendering:optimizeQuality; fill-rule:evenodd; clip-rule:evenodd"
viewBox="0 0 21729.09 28120"
 xmlns:xlink="http://www.w3.org/1999/xlink"
 xmlns:xodm="http://www.corel.com/coreldraw/odm/2003">
 <defs>
  <style type="text/css">
   <![CDATA[
    .str0 {stroke:black;stroke-width:53.26;stroke-miterlimit:22.9256}
    .fil0 {fill:none}
    .fil1 {fill:black}
   ]]>
  </style>
 </defs>
 <g id="Capa_x0020_1">
  <metadata id="CorelCorpID_0Corel-Layer"/>
  <g id="_1179635136">
   <polyline class="fil0 str0" points="14002.58,11410.85 12916.13,16161.43 8900.5,16172.08 7702.39,11341.37 "/>
   <path class="fil0 str0" d="M7702.39 11341.37c14.7,-328.34 178.04,-525.4 490,-591.19"/>
   <path class="fil0 str0" d="M8192.39 10750.17c55.82,-276.25 221.78,-424.5 497.89,-444.75 280.11,-753.01 864.17,-1060.57 1752.16,-922.68"/>
   <path class="fil0 str0" d="M10432.87 9381.28c446.76,-434.91 857.36,-379.41 1231.78,166.54 546.87,-11.29 906.37,243.91 1078.5,765.6 303.88,-12.78 514.27,120.38 631.17,399.49 507.06,-7.28 716.48,225.37 628.25,697.95"/>
   <g id="_1283173920">
    <path class="fil1" d="M10532.5 9710.13c-385.22,-97.33 -703.73,-211.52 -1084.17,55.1 -361.34,253.25 -403.02,400.54 -545.14,815.64 -373.72,42.05 -419.87,-6.54 -509.46,401.53 -175.52,79.09 -253.44,85.12 -319.03,269.78l5630.29 0.06c-8.99,-310.62 -240.75,-314.99 -465.01,-176.23 -241.27,-270.74 -100.71,-484.05 -746.63,-490.41 -115.22,-270.43 -38.95,-381.99 -316.99,-617.06 -255.96,-216.41 -467.46,-130.28 -746.29,-110.29 -95.4,-180.46 -63.56,-404.34 -357.33,-465.08 -360.33,-74.51 -379.19,162.58 -540.25,316.95z"/>
    <path class="fil1" d="M10453.95 15874.95l819.79 7.44c76.81,-264.2 84.54,-1769.17 92.01,-2148.94 13.55,-689.55 98.79,-1501.51 66.91,-2171.35l-1109.49 -6.94 130.79 4319.79z"/>
    <path class="fil1" d="M9178.98 15880.32l710.55 0.83c20.61,-136.49 -634.42,-3964.6 -726.88,-4326.02l-1103.05 10.71 1119.39 4314.49z"/>
    <polygon class="fil1" points="13655.33,11555.78 12612.08,11571.36 11844.02,15881.39 12612.1,15872.03 "/>
   </g>
  </g>
 </g>
 <g id="Capa_x0020_1_0">
  <metadata id="CorelCorpID_1Corel-Layer"/>
 </g>
</svg>
