<?xml version="1.0" encoding="UTF-8"?>
<!DOCTYPE svg PUBLIC "-//W3C//DTD SVG 1.1//EN" "http://www.w3.org/Graphics/SVG/1.1/DTD/svg11.dtd">
<!-- Creator: CorelDRAW 2019 (64-Bit) -->
<svg xmlns="http://www.w3.org/2000/svg" xml:space="preserve" width="67mm" height="101mm" version="1.1" style="shape-rendering:geometricPrecision; text-rendering:geometricPrecision; image-rendering:optimizeQuality; fill-rule:evenodd; clip-rule:evenodd"
viewBox="0 0 6700 10100"
 xmlns:xlink="http://www.w3.org/1999/xlink"
 xmlns:xodm="http://www.corel.com/coreldraw/odm/2003">
 <defs>
  <style type="text/css">
   <![CDATA[
    .str0 {stroke:black;stroke-width:105.83;stroke-miterlimit:22.9256}
    .str2 {stroke:black;stroke-width:88.19;stroke-miterlimit:22.9256}
    .str1 {stroke:#FEFEFE;stroke-width:52.92;stroke-miterlimit:22.9256}
    .fil1 {fill:none}
    .fil2 {fill:#FEFEFE}
    .fil0 {fill:black}
   ]]>
  </style>
   <clipPath id="id0">
    <rect x="-172.37" y="1162.12" width="7055.54" height="7408.32"/>
   </clipPath>
 </defs>
 <g id="Capa_x0020_1">
  <metadata id="CorelCorpID_0Corel-Layer"/>
  <g style="clip-path:url(#id0)">
   <image x="-172.37" y="1162.12" width="7055.54" height="7408.32" xlink:href="pal3_Images\pal3_ImgID1.png"/>
  </g>
  <g id="_1359744624">
   <path class="fil0" d="M3073.18 1973.92c-319.18,-75.46 -617.05,-234.19 -1074.62,53.52 -334.78,210.51 -429.86,425.56 -548.16,828.01 -300.26,-9.4 -385.26,-2.06 -465.56,241.25 -65.44,198.29 7.18,106.54 -158.86,193.79 -117.77,61.87 -150.54,75.54 -185.72,198.72l5571.81 0.33c-18.3,-315.79 -277.48,-287.41 -479.02,-154.24 -272.97,-541.17 -324.54,-462.47 -746.89,-487.83 -36.34,-322.17 -118.24,-464.78 -299.15,-618.18 -244.47,-207.3 -400.62,-150.37 -731.89,-103.93 -72.29,-123.83 -72.75,-414.32 -357.46,-464.97 -158.67,-28.23 -257.81,7.22 -338.92,75.43 -25.6,21.53 -73.44,77.82 -98.04,112.2 -22.14,30.94 -18.82,30.05 -42.24,63.82 -4.13,5.96 -10.96,15.62 -14.72,20.97l-30.56 41.11z"/>
   <polygon class="fil0" points="3006.06,8075.47 3810.68,8076.3 3955.12,3807.8 2855.34,3812.57 "/>
   <path class="fil0" d="M2247.79 6997.97c-177.6,-1023.39 -344.22,-2185.37 -551.96,-3189.55l-1067.55 -0.33c34.63,218.71 106.13,458.91 152.05,634.85l777.38 2998.52c25.27,95.35 113.23,560.02 167.26,607.09 97.6,85.03 538.78,27.48 713.21,28 -50.77,-364.01 -126.06,-707.95 -190.39,-1078.58z"/>
   <path class="fil0" d="M6157.34 3807.95c-1246.11,4.8 -997.66,-94.63 -1094.21,436.31 -98.75,543.01 -684.21,3561.53 -684.12,3832.37l734.91 -5.45 1043.42 -4263.23z"/>
  </g>
  <polyline class="fil1 str0" points="6481.38,3590.71 5402.78,8306.97 1416.16,8317.54 226.71,3521.73 "/>
  <path class="fil1 str0" d="M221.73 3546.8c15.45,-345.06 187.1,-552.15 514.94,-621.29"/>
  <path class="fil1 str0" d="M699.09 2957.93c56.39,-279.09 224.06,-428.86 503,-449.32 282.99,-760.74 873.05,-1071.46 1770.15,-932.15"/>
  <path class="fil1 str0" d="M2932.01 1587.99c443.9,-432.13 851.87,-376.98 1223.9,165.47 543.37,-11.22 900.57,242.35 1071.6,760.7 301.93,-12.7 510.98,119.61 627.13,396.93 503.81,-7.23 711.89,223.93 624.23,693.48"/>
  <path class="fil2 str1" d="M3597.66 1660.39c-158.67,-28.23 -257.81,7.22 -338.92,75.43 -25.6,21.53 -73.44,77.82 -98.04,112.2 -22.14,30.94 -18.82,30.05 -42.24,63.82 -4.13,5.96 -10.96,15.62 -14.72,20.97l-30.56 41.11c-319.18,-75.46 -617.05,-234.19 -1074.62,53.52 -334.78,210.51 -429.86,425.56 -548.16,828.01 -300.26,-9.4 -385.26,-2.06 -465.56,241.25 -65.44,198.29 7.18,106.54 -158.86,193.79 -117.77,61.87 -150.54,75.54 -185.72,198.72l5571.81 0.33c-18.3,-315.79 -277.48,-287.41 -479.02,-154.24 -272.97,-541.17 -324.54,-462.47 -746.89,-487.83 -36.34,-322.17 -118.24,-464.78 -299.15,-618.18 -244.47,-207.3 -400.62,-150.37 -731.89,-103.93 -72.29,-123.83 -72.75,-414.32 -357.46,-464.97z"/>
  <line class="fil1 str0" x1="6236.36" y1="3488.88" x2="596.2" y2= "3489.21" />
  <path class="fil1 str0" d="M640.26 3489.21c13.41,-135.42 114.25,-219.83 302.54,-253.26 30.34,-333.63 201.76,-462.21 514.27,-385.71 251.31,-900.19 796.68,-1196.45 1636.13,-888.79"/>
  <path class="fil1 str0" d="M3047.03 1991.97c122.99,-244.8 287.72,-357.85 494.23,-339.1"/>
  <path class="fil1 str2" d="M3530.89 1651.95c214.36,-7.78 362.39,157.42 444.08,495.57"/>
  <path class="fil1 str0" d="M3954.2 2107.8c589.2,-176.15 925.54,65.52 1009.02,725.04 387.97,-54.04 636.87,108.53 746.72,487.71 306.63,-178.21 466.27,-126.81 478.9,154.2"/>
 </g>
</svg>
